<?xml version="1.0" encoding="UTF-8" standalone="no"?>
<svg
   xmlns:dc="http://purl.org/dc/elements/1.1/"
   xmlns:cc="http://creativecommons.org/ns#"
   xmlns:rdf="http://www.w3.org/1999/02/22-rdf-syntax-ns#"
   xmlns:svg="http://www.w3.org/2000/svg"
   xmlns="http://www.w3.org/2000/svg"
   xmlns:sodipodi="http://sodipodi.sourceforge.net/DTD/sodipodi-0.dtd"
   xmlns:inkscape="http://www.inkscape.org/namespaces/inkscape"
   id="Layer_1"
   style="enable-background:new 0 0 512 512;"
   version="1.1"
   viewBox="0 0 512 512"
   xml:space="preserve"
   sodipodi:docname="contact.svg"
   inkscape:version="0.92.4 (5da689c313, 2019-01-14)"><metadata
     id="metadata8"><rdf:RDF><cc:Work
         rdf:about=""><dc:format>image/svg+xml</dc:format><dc:type
           rdf:resource="http://purl.org/dc/dcmitype/StillImage" /><dc:title></dc:title></cc:Work></rdf:RDF></metadata><defs
     id="defs6" /><sodipodi:namedview
     pagecolor="#ffffff"
     bordercolor="#666666"
     borderopacity="1"
     objecttolerance="10"
     gridtolerance="10"
     guidetolerance="10"
     inkscape:pageopacity="0"
     inkscape:pageshadow="2"
     inkscape:window-width="918"
     inkscape:window-height="513"
     id="namedview4"
     showgrid="false"
     inkscape:zoom="0.4609375"
     inkscape:cx="256"
     inkscape:cy="256"
     inkscape:window-x="0"
     inkscape:window-y="0"
     inkscape:window-maximized="0"
     inkscape:current-layer="Layer_1" /><path
     d="M351.5,339.3c-18.8-4.1-41.3,3.1-49.4,20.6c-4.7,10.1-5.4,23.9-15.6,28.4c-7.3,3.3-15.7-0.4-22.7-4.3  c-34.4-19.2-103.4-156.4-98.2-195.5c1-7.9,3.2-16.9,10.1-20.8c9.7-5.5,21.2,2.2,32.1,4.4c18.9,4,38-9.8,46-27.3  c8-17.5,7.1-37.8,4.4-56.9c-3.2-22.3-9.2-45.2-24-62.1c-42.2-48-104.5,0.4-129.4,40.9C88.8,92.8,80,122.7,75.8,152.8  C66.7,217,182,446.4,239,477.5c26.7,14.6,55.9,25.3,86.2,28c47.4,4.2,123.4-16.9,110.1-79.4c-4.7-22-19.5-40.5-35.5-56.3  C386,356.2,370.3,343.4,351.5,339.3z"
     id="XMLID_1_"
     style="fill:#ffffff" /></svg>