<?xml version="1.0" encoding="UTF-8" standalone="no"?>
<!-- Created with Inkscape (http://www.inkscape.org/) -->

<svg
   xmlns:dc="http://purl.org/dc/elements/1.1/"
   xmlns:cc="http://creativecommons.org/ns#"
   xmlns:rdf="http://www.w3.org/1999/02/22-rdf-syntax-ns#"
   xmlns:svg="http://www.w3.org/2000/svg"
   xmlns="http://www.w3.org/2000/svg"
   xmlns:sodipodi="http://sodipodi.sourceforge.net/DTD/sodipodi-0.dtd"
   xmlns:inkscape="http://www.inkscape.org/namespaces/inkscape"
   width="133.07782mm"
   height="124.13046mm"
   viewBox="0 0 133.07782 124.13046"
   version="1.1"
   id="svg8"
   inkscape:version="0.92.4 (5da689c313, 2019-01-14)"
   sodipodi:docname="icon.svg">
  <defs
     id="defs2" />
  <sodipodi:namedview
     id="base"
     pagecolor="#ffffff"
     bordercolor="#666666"
     borderopacity="1.0"
     inkscape:pageopacity="0.0"
     inkscape:pageshadow="2"
     inkscape:zoom="0.35"
     inkscape:cx="261.61694"
     inkscape:cy="38.014691"
     inkscape:document-units="mm"
     inkscape:current-layer="layer1"
     showgrid="false"
     fit-margin-top="0"
     fit-margin-left="0"
     fit-margin-right="0"
     fit-margin-bottom="0"
     inkscape:window-width="2560"
     inkscape:window-height="1335"
     inkscape:window-x="-13"
     inkscape:window-y="-13"
     inkscape:window-maximized="1" />
  <metadata
     id="metadata5">
    <rdf:RDF>
      <cc:Work
         rdf:about="">
        <dc:format>image/svg+xml</dc:format>
        <dc:type
           rdf:resource="http://purl.org/dc/dcmitype/StillImage" />
        <dc:title></dc:title>
      </cc:Work>
    </rdf:RDF>
  </metadata>
  <g
     inkscape:label="Layer 1"
     inkscape:groupmode="layer"
     id="layer1"
     transform="translate(-36.613852,-34.760925)">
    <path
       style="fill:#000000;stroke-width:0.26458332"
       d="m 61.75875,157.78118 c -4.71889,-3.04997 -7.3669,-7.86937 -8.64421,-15.73253 -0.33337,-2.05223 -0.47212,-5.67317 -0.61846,-16.13958 -0.14286,-10.21781 -0.27422,-13.71856 -0.54108,-14.41979 -0.19382,-0.50932 -1.32619,-2.23573 -2.51638,-3.83646 -3.30714,-4.4479 -4.29981,-6.01717 -5.86394,-9.269967 -1.66939,-3.4717 -4.49413,-11.86093 -5.4757,-16.26232 -2.60844,-11.696352 -1.71066,-24.716329 2.14157,-31.057787 2.60725,-4.291994 9.34321,-9.146319 15.61877,-11.255789 2.84901,-0.957668 5.33927,-1.224472 7.93112,-0.84973 4.38225,0.633608 7.02136,1.999943 14.1396,7.320431 2.01959,1.509536 4.46959,3.137267 5.44443,3.617181 1.63079,0.802836 1.97486,0.87257 4.30527,0.87257 2.38858,0 2.64505,-0.0557 4.50348,-0.978126 1.08386,-0.53797 3.81612,-2.357025 6.07169,-4.042346 4.97921,-3.720368 7.40459,-5.173623 10.18599,-6.10332 2.39792,-0.801516 6.63342,-1.169528 7.87182,-0.683965 0.7258,0.284575 0.72761,0.291821 0.72761,2.914421 v 2.629136 l -4.16719,0.08939 c -4.02328,0.0863 -4.22657,0.117665 -5.88698,0.908157 -2.93376,1.396719 -4.86222,3.817476 -5.52334,6.93332 -0.19585,0.923038 -0.29749,5.596768 -0.29749,13.679165 0,8.082396 0.10164,12.756126 0.29749,13.679165 0.66112,3.115847 2.58958,5.536597 5.52334,6.933317 1.65938,0.79001 1.86556,0.8219 5.86947,0.90785 l 4.14968,0.0891 0.0836,4.27654 c 0.0788,4.03029 0.12506,4.36085 0.80267,5.74058 0.92426,1.88193 2.83682,3.786637 4.69483,4.675557 1.16161,0.55575 2.00642,0.73246 4.07596,0.85261 l 2.61063,0.15155 -2.71381,3.54274 c -1.6156,2.10908 -2.87682,4.03635 -3.11662,4.7625 -0.32828,0.99407 -0.43739,3.71647 -0.5897,14.71351 -0.14653,10.58027 -0.27873,14.00789 -0.61226,15.875 -1.15477,6.46446 -2.76926,10.09111 -5.90404,13.26228 -3.83157,3.87607 -6.68068,4.26004 -9.32438,1.25663 -1.28279,-1.45732 -2.46919,-3.89814 -5.84248,-12.0199 -4.54714,-10.94803 -7.48097,-16.47943 -10.28275,-19.38696 -2.53026,-2.62576 -3.74487,-2.63832 -6.26822,-0.0648 -2.88016,2.93742 -5.56556,7.97525 -10.34857,19.41402 -3.70379,8.85776 -4.55696,10.58879 -5.97954,12.13211 -2.16317,2.34676 -3.89534,2.57867 -6.53193,0.87456 z M 124.9831,97.002933 c -0.50642,-0.25443 -1.19103,-0.86717 -1.52135,-1.36163 -0.58323,-0.87304 -0.60059,-1.08471 -0.60059,-7.32542 v -6.42639 l -6.54844,-0.08291 c -6.36726,-0.08062 -6.57233,-0.09996 -7.41232,-0.699088 -1.69031,-1.205621 -1.64965,-0.836078 -1.64965,-14.994244 0,-14.158167 -0.0407,-13.788625 1.64965,-14.994246 0.83999,-0.599124 1.04506,-0.618465 7.41232,-0.699086 l 6.54844,-0.08291 v -6.426395 c 0,-6.240704 0.0174,-6.452373 0.60059,-7.325419 1.23802,-1.85321 0.99968,-1.824243 15.00983,-1.824243 14.01014,0 13.7718,-0.02897 15.00983,1.824243 0.58323,0.873046 0.60058,1.084715 0.60058,7.325419 v 6.426395 l 6.54844,0.08291 c 6.36726,0.08062 6.57234,0.09996 7.41233,0.699086 1.6909,1.206045 1.64975,0.830468 1.64866,15.047252 -0.001,12.331246 -0.0242,12.949579 -0.51654,13.757098 -1.06396,1.744959 -1.27488,1.791513 -8.532,1.883228 l -6.56089,0.08291 v 6.42639 c 0,6.24071 -0.0174,6.45238 -0.60058,7.32542 -1.23803,1.85321 -0.99969,1.82424 -15.00983,1.82424 -11.43752,0 -12.65051,-0.0416 -13.48848,-0.46261 z m 21.42598,-13.91723 c 0,-6.258137 0.0173,-6.468981 0.60058,-7.342188 1.14165,-1.708941 1.69282,-1.824193 8.72598,-1.824654 l 6.28385,-4.1e-4 v -7.805208 -7.805209 l -6.28385,-5.29e-4 c -7.03316,-5.29e-4 -7.58433,-0.115713 -8.72598,-1.824654 -0.58333,-0.873088 -0.60058,-1.083932 -0.60058,-7.342069 v -6.443165 h -7.9375 -7.9375 v 6.443165 c 0,6.258137 -0.0172,6.468981 -0.60059,7.342188 -1.14165,1.708941 -1.69281,1.824194 -8.72597,1.824654 l -6.28386,4.1e-4 v 7.805209 7.805208 l 6.28386,5.29e-4 c 7.03316,5.3e-4 7.58432,0.115713 8.72597,1.824654 0.58334,0.873207 0.60059,1.084051 0.60059,7.342189 v 6.44305 h 7.9375 7.9375 z"
       id="path21"
       inkscape:connector-curvature="0" />
  </g>
</svg>
